:version 1.10
:name ASF
:units
  mass 1
  length 1
  angle deg
:documentation
  ASF file generated by Kaydara
:root
  axis xyz
  order  tx ty tz rx ry rz
  position 0 0 0
  orientation 0 0 0
:bonedata
  begin
    id 1
    name LeftUpLegDummy
    direction 1 -2.30186e-007 -8.31532e-007
    length 2.93387
    axis 0 0 0 xyz
  end
  begin
    id 2
    name LeftUpLeg
    direction -1.82929e-007 -1 -1.48925e-009
    length 17.3336
    axis -3.48766 0.00143442 -0.000521554 xyz
    dof rx ry rz
  end
  begin
    id 3
    name LeftLeg
    direction -1.82929e-007 -1 -5.23717e-011
    length 14.9995
    axis 3.68178 -0.00654042 -0.000282425 xyz
    dof rx ry rz
  end
  begin
    id 4
    name LeftFoot
    direction 8.31532e-007 -4.54534e-011 1
    length 6.74421
    axis 1.87234e-006 4.66016e-005 -5.96866e-006 xyz
    dof rx ry rz
  end
  begin
    id 5
    name LeftToes
    direction 0.00818058 -0.00485161 0.999955
    length 3.85048
    axis 1.06247e-005 4.65869e-005 -5.96999e-006 xyz
    dof rx ry rz
  end
  begin
    id 6
    name SpineDummy
    direction -5.8607e-008 0.943407 -0.331637
    length 5.93572
    axis 0 0 0 xyz
  end
  begin
    id 7
    name Spine
    direction -1.04988e-007 0.999988 0.00495137
    length 10.1015
    axis -0.001389 0.000121417 6.61666e-006 xyz
    dof rx ry rz
  end
  begin
    id 8
    name Spine1
    direction 0 0 0
    length 0
    axis -0.001389 0.00012144 6.56766e-006 xyz
    dof rx ry rz
  end
  begin
    id 9
    name RightShoulderDummy
    direction -0.98348 0.17941 -0.0240696
    length 3.59882
    axis -0.001389 0.00012144 6.56766e-006 xyz
  end
  begin
    id 10
    name RightShoulder
    direction -0.978693 0.204882 0.0135597
    length 2.70001
    axis 0.215806 0.000203631 -0.00679732 xyz
    dof rx ry rz
  end
  begin
    id 11
    name RightArm
    direction -1 3.85509e-006 8.31394e-007
    length 10.2459
    axis -23.2009 -0.134239 -0.964098 xyz
    dof rx ry rz
  end
  begin
    id 12
    name RightForeArm
    direction -1 3.85569e-006 8.3129e-007
    length 8.16799
    axis -9.92322 0.0658061 0.17887 xyz
    dof rx ry rz
  end
  begin
    id 13
    name RightHand
    direction -0.992843 -0.0414604 0.112003
    length 5.28593
    axis -0.00960638 0.00330669 -0.185225 xyz
    dof rx ry rz
  end
  begin
    id 14
    name LeftShoulder1Dummy
    direction 0.983523 0.179172 -0.0240748
    length 3.59866
    axis -0.001389 0.00012144 6.56766e-006 xyz
  end
  begin
    id 15
    name LeftShoulder1
    direction 0.978627 0.205195 0.0135605
    length 2.70019
    axis -0.001389 0.00012144 6.57583e-006 xyz
    dof rx ry rz
  end
  begin
    id 16
    name LeftArm
    direction 1 3.51895e-006 -8.60188e-007
    length 10.2459
    axis -23.1894 0.134785 0.967513 xyz
    dof rx ry rz
  end
  begin
    id 17
    name LeftForeArm
    direction 1 3.51921e-006 -7.32029e-007
    length 8.16799
    axis -9.91835 -0.0656957 -0.177789 xyz
    dof rx ry rz
  end
  begin
    id 18
    name LeftHand
    direction 0.992938 -0.0411636 0.11126
    length 5.32135
    axis -0.00960237 -0.00340661 0.185177 xyz
    dof rx ry rz
  end
  begin
    id 19
    name HEadDummy
    direction 1.01974e-006 0.999861 -0.016675
    length 2.99946
    axis -0.001389 0.00012144 6.56766e-006 xyz
  end
  begin
    id 20
    name HEad
    direction -0.0222689 0.980941 0.193023
    length 5.12695
    axis -0.001389 0.00012144 6.56766e-006 xyz
    dof rx ry rz
  end
  begin
    id 21
    name RightUpLegDummy
    direction -1 2.30186e-007 8.31532e-007
    length 2.93387
    axis 0 0 0 xyz
  end
  begin
    id 22
    name RightUpLeg
    direction -1.82966e-007 -1 1.56832e-007
    length 17.3336
    axis -3.4909 -0.000906625 0.00028951 xyz
    dof rx ry rz
  end
  begin
    id 23
    name RightLeg
    direction -1.82786e-007 -1 -1.80317e-007
    length 14.9995
    axis 3.68513 0.0193739 -0.131021 xyz
    dof rx ry rz
  end
  begin
    id 24
    name RightFoot
    direction 8.31721e-007 -4.63324e-011 1
    length 6.74421
    axis 4.81691e-005 -0.120479 -0.188785 xyz
    dof rx ry rz
  end
  begin
    id 25
    name RightToes
    direction 0.00124746 -0.014064 0.9999
    length 3.85082
    axis 0.000481921 0.542163 -0.142575 xyz
    dof rx ry rz
  end
:hierarchy
  begin
    root LeftUpLegDummy SpineDummy RightUpLegDummy
    LeftUpLegDummy LeftUpLeg
    LeftUpLeg LeftLeg
    LeftLeg LeftFoot
    LeftFoot LeftToes
    SpineDummy Spine
    Spine Spine1
    Spine1 RightShoulderDummy LeftShoulder1Dummy HEadDummy
    RightShoulderDummy RightShoulder
    RightShoulder RightArm
    RightArm RightForeArm
    RightForeArm RightHand
    LeftShoulder1Dummy LeftShoulder1
    LeftShoulder1 LeftArm
    LeftArm LeftForeArm
    LeftForeArm LeftHand
    HEadDummy HEad
    RightUpLegDummy RightUpLeg
    RightUpLeg RightLeg
    RightLeg RightFoot
    RightFoot RightToes
  end

:SAMPLES-PER-SECOND 30
:FULLY-SPECIFIED
:DEGREES
308
root  1.56657 33.8236 -7.1881 -167.21 45.2122 -176.165
LeftUpLeg  -25.647 5.33021 8.67889
LeftLeg  6.58226 -1.49019 -0.0762515
LeftFoot  6.48116 -0.000997186 -0.0130094
LeftToes  -22.5765 7.65994e-007 1.12379e-007
Spine  9.09995 5.87634 -0.126199
Spine1  17.7767 12.6941 -0.886756
RightShoulder  0.115579 6.38712 -14.1556
RightArm  9.33334 26.3566 98.9315
RightForeArm  127.795 61.6889 160.54
RightHand  0.548465 -13.4235 -4.28601
LeftShoulder1  0.0487171 -2.65414 -5.20237
LeftArm  21.4183 12.6406 -62.8723
LeftForeArm  100.7 -79.7334 -100.088
LeftHand  0.630755 -5.73378 -12.9306
HEad  8.33775 31.3616 -6.84902
RightUpLeg  -19.8173 -13.9715 9.02837
RightLeg  17.3594 -2.10144 -0.511252
RightFoot  -3.37953 -0.00193182 0.31213
RightToes  -16.6355 -0.0660194 -0.15228
309
root  1.67516 33.8444 -7.11495 -167.644 44.0325 -176.662
LeftUpLeg  -25.651 6.2685 8.06764
LeftLeg  6.58484 -0.381766 -0.020118
LeftFoot  5.61456 -0.00999568 0.106797
LeftToes  -21.1864 7.65994e-007 1.12379e-007
Spine  8.93303 5.84729 -0.274498
Spine1  17.4318 12.6228 -1.12741
RightShoulder  0.111397 6.32176 -14.232
RightArm  9.82096 26.2266 99.2806
RightForeArm  127.893 61.5683 160.64
RightHand  0.538006 -13.4585 -4.18065
LeftShoulder1  0.0452188 -2.55646 -4.95791
LeftArm  21.2743 12.6208 -63.0539
LeftForeArm  98.7836 -79.7812 -98.4539
LeftHand  0.634432 -5.5776 -13.355
HEad  8.28874 32.2123 -6.73729
RightUpLeg  -19.5698 -14.6101 8.97705
RightLeg  17.012 -2.5677 -0.607952
RightFoot  -3.52514 -0.00359144 0.339915
RightToes  -16.3044 -0.0647368 -0.151328
310
root  1.77827 33.8672 -7.07221 -168.028 42.999 -177.113
LeftUpLeg  -25.627 7.05935 7.52836
LeftLeg  6.57821 0.265597 0.0126805
LeftFoot  5.36547 -0.0142472 0.16323
LeftToes  -20.7802 7.65994e-007 1.12379e-007
Spine  8.76231 5.86982 -0.387727
Spine1  17.0929 12.6461 -1.28565
RightShoulder  0.107062 6.27122 -14.3369
RightArm  10.3029 26.1619 99.592
RightForeArm  127.853 61.5085 160.69
RightHand  0.530814 -13.4376 -4.13155
LeftShoulder1  0.0424432 -2.56337 -4.76936
LeftArm  21.2775 12.6083 -63.1502
LeftForeArm  97.9873 -79.799 -97.7564
LeftHand  0.613332 -5.2652 -13.6673
HEad  8.41948 32.8426 -6.62307
RightUpLeg  -19.3102 -15.1319 8.88856
RightLeg  16.7017 -3.05042 -0.704564
RightFoot  -3.55683 -0.00490917 0.36581
RightToes  -16.5113 -0.0638325 -0.151162
311
root  1.87617 33.888 -7.06594 -168.358 42.0337 -177.483
LeftUpLeg  -25.5203 7.39472 7.17383
LeftLeg  6.66666 0.334001 0.0166481
LeftFoot  5.69965 -0.0147632 0.170379
LeftToes  -21.3305 7.65994e-007 1.12379e-007
Spine  8.58879 5.90318 -0.463348
Spine1  16.7584 12.6824 -1.36429
RightShoulder  0.102858 6.19133 -14.3775
RightArm  10.7955 26.1115 99.843
RightForeArm  127.762 61.4396 160.747
RightHand  0.52658 -13.4786 -4.08797
LeftShoulder1  0.0399981 -2.53938 -4.66615
LeftArm  21.3806 12.621 -63.1933
LeftForeArm  97.5925 -79.8096 -97.3075
LeftHand  0.610715 -5.18369 -13.8179
HEad  8.74183 33.3078 -6.50115
RightUpLeg  -18.9892 -15.8133 8.79523
RightLeg  16.3324 -3.32213 -0.744601
RightFoot  -3.64019 -0.00537267 0.381152
RightToes  -16.3364 -0.0632883 -0.151542
312
root  1.97236 33.91 -7.09202 -168.712 41.1008 -177.87
LeftUpLeg  -25.3617 7.17818 6.99893
LeftLeg  7.39796 -0.448129 -0.0299584
LeftFoot  6.55686 -0.00929855 0.0917263
LeftToes  -23.1731 7.65994e-007 1.12379e-007
Spine  8.43607 5.916 -0.547418
Spine1  16.4571 12.6851 -1.47692
RightShoulder  0.0992794 6.11923 -14.3269
RightArm  11.2361 26.066 99.9696
RightForeArm  127.636 61.3617 160.812
RightHand  0.523768 -13.5591 -4.03177
LeftShoulder1  0.0376978 -2.44213 -4.58755
LeftArm  21.3528 12.6342 -63.2656
LeftForeArm  97.0362 -79.8206 -96.8076
LeftHand  0.606726 -5.04536 -14.0947
HEad  8.99986 33.6675 -6.28539
RightUpLeg  -18.6516 -16.6693 8.64446
RightLeg  16.0501 -3.38753 -0.741651
RightFoot  -3.69386 -0.00488006 0.38365
RightToes  -16.597 -0.0630864 -0.152228
313
root  2.06367 33.9301 -7.1491 -169.043 40.3195 -178.212
LeftUpLeg  -25.1149 6.73344 6.97975
LeftLeg  8.56738 -1.58698 -0.136621
LeftFoot  7.75097 0.00136729 -0.0622461
LeftToes  -24.8629 7.65994e-007 1.12379e-007
Spine  8.3022 5.95275 -0.626836
Spine1  16.1928 12.7385 -1.58523
RightShoulder  0.0963385 6.01224 -14.319
RightArm  11.5785 25.9592 100.11
RightForeArm  127.611 61.2551 160.899
RightHand  0.53053 -13.5646 -4.08671
LeftShoulder1  0.0356255 -2.38638 -4.51983
LeftArm  21.2208 12.6934 -63.4118
LeftForeArm  96.6047 -79.8302 -96.3038
LeftHand  0.601187 -4.91445 -14.3304
HEad  9.21508 33.8309 -6.09347
RightUpLeg  -18.277 -17.3519 8.43764
RightLeg  15.8187 -3.5027 -0.75196
RightFoot  -3.71927 -0.0044601 0.388563
RightToes  -17.0223 -0.0632085 -0.152979
314
root  2.1562 33.9502 -7.23926 -169.311 39.6854 -178.497
LeftUpLeg  -24.6964 6.26248 7.02289
LeftLeg  9.62424 -2.31547 -0.242058
LeftFoot  8.83767 0.0110992 -0.197824
LeftToes  -25.55 7.65994e-007 1.12379e-007
Spine  8.16 5.97796 -0.700999
Spine1  15.9103 12.7687 -1.68646
RightShoulder  0.0936611 5.93745 -14.2481
RightArm  11.8976 25.7993 100.264
RightForeArm  127.613 61.1374 160.994
RightHand  0.538557 -13.5962 -4.14347
LeftShoulder1  0.0336902 -2.3626 -4.50012
LeftArm  21.0868 12.7711 -63.5141
LeftForeArm  96.3095 -79.8376 -95.9561
LeftHand  0.596772 -4.77443 -14.6322
HEad  9.59426 33.6921 -5.82885
RightUpLeg  -17.9024 -17.9572 8.20878
RightLeg  15.6366 -3.54064 -0.748285
RightFoot  -3.8122 -0.00395736 0.392768
RightToes  -17.1542 -0.0636368 -0.153556
315
root  2.24624 33.9722 -7.35722 -169.541 39.1418 -178.775
LeftUpLeg  -24.1481 5.79432 7.06758
LeftLeg  10.6209 -2.51301 -0.306975
LeftFoot  9.42282 0.0156733 -0.250993
LeftToes  -26.1166 7.65994e-007 1.12379e-007
Spine  8.02089 5.96999 -0.789294
Spine1  15.6256 12.7382 -1.82804
RightShoulder  0.0913717 5.8405 -14.13
RightArm  12.2434 25.6285 100.464
RightForeArm  127.58 61.0381 161.074
RightHand  0.552361 -13.6393 -4.24428
LeftShoulder1  0.0318056 -2.31683 -4.54712
LeftArm  20.9737 12.76 -63.5398
LeftForeArm  95.4886 -79.8518 -95.1402
LeftHand  0.589598 -4.60844 -14.9661
HEad  9.81125 33.433 -5.70286
RightUpLeg  -17.5034 -18.1597 7.90229
RightLeg  15.4566 -3.89476 -0.810198
RightFoot  -3.8125 -0.00450229 0.413102
RightToes  -17.3668 -0.0643532 -0.153752
316
root  2.33069 33.9976 -7.50753 -169.739 38.6875 -179.045
LeftUpLeg  -23.5437 5.46524 7.05708
LeftLeg  11.7688 -2.86773 -0.408662
LeftFoot  9.66636 0.021336 -0.320459
LeftToes  -26.2395 7.65994e-007 1.12379e-007
Spine  7.86948 5.91961 -0.890577
Spine1  15.3086 12.6311 -2.0145
RightShoulder  0.0888082 5.75609 -13.9812
RightArm  12.555 25.4359 100.578
RightForeArm  127.675 60.898 161.186
RightHand  0.581779 -13.6945 -4.47001
LeftShoulder1  0.0299604 -2.22753 -4.57916
LeftArm  20.8605 12.7281 -63.5792
LeftForeArm  93.2665 -79.8781 -93.1449
LeftHand  0.572277 -4.38449 -15.2596
HEad  10.0473 33.1647 -5.53164
RightUpLeg  -17.0306 -18.1504 7.53516
RightLeg  15.1497 -4.38456 -0.887356
RightFoot  -3.66869 -0.0049976 0.431821
RightToes  -17.5632 -0.0653397 -0.153759
317
root  2.40569 34.0256 -7.69825 -169.781 38.303 -179.208
LeftUpLeg  -22.8515 5.02627 7.10326
LeftLeg  13.0351 -3.55067 -0.585956
LeftFoot  10.0879 0.0316876 -0.4638
LeftToes  -25.457 7.65994e-007 1.12379e-007
Spine  7.65894 5.82883 -0.966025
Spine1  14.8829 12.4295 -2.14231
RightShoulder  0.0861619 5.66237 -13.8128
RightArm  12.8487 25.1507 100.672
RightForeArm  127.749 60.7663 161.289
RightHand  0.593893 -13.7222 -4.56061
LeftShoulder1  0.0281433 -2.0217 -4.60003
LeftArm  20.844 12.6582 -63.6745
LeftForeArm  89.7622 -79.895 -90.0362
LeftHand  0.54648 -4.10134 -15.569
HEad  10.6054 32.6697 -5.2163
RightUpLeg  -16.5087 -18.1241 7.20285
RightLeg  14.6526 -4.7938 -0.926692
RightFoot  -3.47206 -0.00464544 0.435833
RightToes  -17.6648 -0.0665781 -0.153935
